<?xml version="1.0" encoding="UTF-8" standalone="no"?>
<!DOCTYPE svg PUBLIC "-//W3C//DTD SVG 1.1//EN" "http://www.w3.org/Graphics/SVG/1.1/DTD/svg11.dtd">
<svg width="100%" height="100%" viewBox="0 0 17008 18898" version="1.1" xmlns="http://www.w3.org/2000/svg" xmlns:xlink="http://www.w3.org/1999/xlink" xml:space="preserve" xmlns:serif="http://www.serif.com/" style="fill-rule:evenodd;clip-rule:evenodd;stroke-linejoin:round;stroke-miterlimit:2;">
    <g transform="matrix(19.718883,0,0,34.655925,-436.99506,-261)">
        <rect x="0" y="0" width="900" height="600" style="fill:rgb(28,28,28);"/>
    </g>
    <g transform="matrix(18.903328,0,0,15.735925,17013,0)">
        <path d="M0,269C-25.7,294.8 -51.5,320.6 -72.2,316.4C-92.9,312.1 -108.6,277.8 -122.8,255C-136.9,232.1 -149.5,220.7 -170.8,214.2C-192.2,207.7 -222.2,206 -240,191.4C-257.8,176.8 -263.4,149.2 -256.8,123.7C-250.2,98.2 -231.4,74.8 -238.9,54.5C-246.4,34.3 -280.2,17.1 -314,0L0,0L0,269Z" style="fill:rgb(41,34,41);fill-rule:nonzero;"/>
        <path d="M0,230.6C-22.1,252.7 -44.1,274.8 -61.9,271.2C-79.7,267.5 -93.1,238.1 -105.2,218.5C-117.4,199 -128.2,189.2 -146.4,183.6C-164.7,178 -190.5,176.6 -205.7,164.1C-221,151.5 -225.8,127.8 -220.1,106C-214.4,84.1 -198.3,64.1 -204.7,46.7C-211.2,29.4 -240.2,14.7 -269.1,0L0,0L0,230.6Z" style="fill:rgb(67,44,67);fill-rule:nonzero;"/>
        <path d="M0,192.1C-18.4,210.6 -36.8,229 -51.6,226C-66.4,222.9 -77.6,198.4 -87.7,182.1C-97.8,165.8 -106.8,157.7 -122,153C-137.3,148.4 -158.7,147.2 -171.4,136.7C-184.2,126.3 -188.1,106.5 -183.4,88.3C-178.7,70.1 -165.3,53.4 -170.6,38.9C-176,24.5 -200.1,12.2 -224.3,0L0,0L0,192.1Z" style="fill:rgb(95,55,96);fill-rule:nonzero;"/>
        <path d="M0,153.7C-14.7,168.5 -29.4,183.2 -41.3,180.8C-53.1,178.4 -62.1,158.8 -70.2,145.7C-78.2,132.6 -85.4,126.1 -97.6,122.4C-109.8,118.7 -127,117.7 -137.2,109.4C-147.3,101 -150.5,85.2 -146.7,70.7C-142.9,56.1 -132.2,42.7 -136.5,31.2C-140.8,19.6 -160.1,9.8 -179.4,0L0,0L0,153.7Z" style="fill:rgb(124,64,126);fill-rule:nonzero;"/>
        <path d="M0,115.3C-11,126.3 -22.1,137.4 -30.9,135.6C-39.8,133.8 -46.6,119.1 -52.6,109.3C-58.7,99.5 -64.1,94.6 -73.2,91.8C-82.4,89 -95.2,88.3 -102.9,82C-110.5,75.8 -112.9,63.9 -110,53C-107.2,42.1 -99.2,32 -102.4,23.4C-105.6,14.7 -120.1,7.3 -134.6,0L0,0L0,115.3Z" style="fill:rgb(155,74,157);fill-rule:nonzero;"/>
        <path d="M0,76.9C-7.4,84.2 -14.7,91.6 -20.6,90.4C-26.6,89.2 -31,79.4 -35.1,72.8C-39.1,66.3 -42.7,63.1 -48.8,61.2C-54.9,59.3 -63.5,58.9 -68.6,54.7C-73.7,50.5 -75.3,42.6 -73.4,35.3C-71.5,28 -66.1,21.4 -68.2,15.6C-70.4,9.8 -80.1,4.9 -89.7,0L0,0L0,76.9Z" style="fill:rgb(186,83,189);fill-rule:nonzero;"/>
        <path d="M0,38.4C-3.7,42.1 -7.4,45.8 -10.3,45.2C-13.3,44.6 -15.5,39.7 -17.5,36.4C-19.6,33.2 -21.4,31.5 -24.4,30.6C-27.5,29.7 -31.7,29.4 -34.3,27.3C-36.8,25.3 -37.6,21.3 -36.7,17.7C-35.7,14 -33.1,10.7 -34.1,7.8C-35.2,4.9 -40,2.4 -44.9,0L0,0L0,38.4Z" style="fill:rgb(202,88,206);fill-rule:nonzero;"/>
    </g>
    <g transform="matrix(-19.126661,0,0,15.870925,16993.99506,15904)">
        <g transform="matrix(1,0,0,1,0,0.189025)">
            <path d="M0,-317C24.6,-314.3 49.1,-311.7 68.8,-301.3C88.4,-290.8 103.1,-272.6 128.4,-266.7C153.7,-260.8 189.6,-267.2 196.4,-246.3C203.2,-225.3 181.1,-177 199.4,-159C217.6,-141 276.3,-153.2 292.4,-140.8C308.4,-128.4 281.8,-91.2 278.8,-63.6C275.8,-36.1 296.4,-18 317,0L0,0L0,-317Z" style="fill:rgb(41,34,41);fill-rule:nonzero;"/>
        </g>
        <path d="M0,-271.7C21,-269.4 42.1,-267.2 58.9,-258.2C75.8,-249.3 88.4,-233.6 110.1,-228.6C131.8,-223.5 162.5,-229 168.3,-211.1C174.2,-193.1 155.2,-151.7 170.9,-136.3C186.5,-120.8 236.8,-131.3 250.6,-120.7C264.4,-110 241.6,-78.2 239,-54.5C236.4,-30.9 254.1,-15.5 271.7,0L0,0L0,-271.7Z" style="fill:rgb(67,44,67);fill-rule:nonzero;"/>
        <path d="M0,-226.4C17.5,-224.5 35.1,-222.6 49.1,-215.2C63.1,-207.7 73.7,-194.7 91.7,-190.5C109.8,-186.3 135.4,-190.9 140.3,-175.9C145.2,-161 129.4,-126.4 142.4,-113.6C155.5,-100.7 197.4,-109.5 208.8,-100.6C220.3,-91.7 201.3,-65.2 199.2,-45.5C197,-25.8 211.7,-12.9 226.4,0L0,0L0,-226.4Z" style="fill:rgb(95,55,96);fill-rule:nonzero;"/>
        <path d="M0,-181.1C14,-179.6 28.1,-178.1 39.3,-172.1C50.5,-166.2 58.9,-155.8 73.4,-152.4C87.8,-149 108.3,-152.7 112.2,-140.7C116.1,-128.8 103.5,-101.2 113.9,-90.9C124.4,-80.6 157.9,-87.6 167.1,-80.5C176.2,-73.3 161,-52.1 159.3,-36.4C157.6,-20.6 169.4,-10.3 181.1,0L0,0L0,-181.1Z" style="fill:rgb(124,64,126);fill-rule:nonzero;"/>
        <path d="M0,-135.9C10.5,-134.7 21,-133.6 29.5,-129.1C37.9,-124.6 44.2,-116.8 55,-114.3C65.9,-111.8 81.2,-114.5 84.2,-105.5C87.1,-96.6 77.6,-75.9 85.4,-68.1C93.3,-60.4 118.4,-65.7 125.3,-60.3C132.2,-55 120.8,-39.1 119.5,-27.3C118.2,-15.5 127,-7.7 135.9,0L0,0L0,-135.9Z" style="fill:rgb(155,74,157);fill-rule:nonzero;"/>
        <path d="M0,-90.6C7,-89.8 14,-89.1 19.6,-86.1C25.3,-83.1 29.5,-77.9 36.7,-76.2C43.9,-74.5 54.2,-76.3 56.1,-70.4C58.1,-64.4 51.7,-50.6 57,-45.4C62.2,-40.3 78.9,-43.8 83.5,-40.2C88.1,-36.7 80.5,-26.1 79.7,-18.2C78.8,-10.3 84.7,-5.2 90.6,0L0,0L0,-90.6Z" style="fill:rgb(186,83,189);fill-rule:nonzero;"/>
        <path d="M0,-45.3C3.5,-44.9 7,-44.5 9.8,-43C12.6,-41.5 14.7,-38.9 18.3,-38.1C22,-37.3 27.1,-38.2 28.1,-35.2C29,-32.2 25.9,-25.3 28.5,-22.7C31.1,-20.1 39.5,-21.9 41.8,-20.1C44.1,-18.3 40.3,-13 39.8,-9.1C39.4,-5.2 42.3,-2.6 45.3,0L0,0L0,-45.3Z" style="fill:rgb(202,88,206);fill-rule:nonzero;"/>
    </g>
    <g transform="matrix(-19.126661,0,0,-15.870925,16995.99506,15905.916916)">
        <g transform="matrix(1,0,0,1,0,0.189025)">
            <path d="M0,-317C24.6,-314.3 49.1,-311.7 68.8,-301.3C88.4,-290.8 103.1,-272.6 128.4,-266.7C153.7,-260.8 189.6,-267.2 196.4,-246.3C203.2,-225.3 181.1,-177 199.4,-159C217.6,-141 276.3,-153.2 292.4,-140.8C308.4,-128.4 281.8,-91.2 278.8,-63.6C275.8,-36.1 296.4,-18 317,0L0,0L0,-317Z" style="fill:rgb(41,34,41);fill-rule:nonzero;"/>
        </g>
        <path d="M0,-271.7C21,-269.4 42.1,-267.2 58.9,-258.2C75.8,-249.3 88.4,-233.6 110.1,-228.6C131.8,-223.5 162.5,-229 168.3,-211.1C174.2,-193.1 155.2,-151.7 170.9,-136.3C186.5,-120.8 236.8,-131.3 250.6,-120.7C264.4,-110 241.6,-78.2 239,-54.5C236.4,-30.9 254.1,-15.5 271.7,0L0,0L0,-271.7Z" style="fill:rgb(67,44,67);fill-rule:nonzero;"/>
        <path d="M0,-226.4C17.5,-224.5 35.1,-222.6 49.1,-215.2C63.1,-207.7 73.7,-194.7 91.7,-190.5C109.8,-186.3 135.4,-190.9 140.3,-175.9C145.2,-161 129.4,-126.4 142.4,-113.6C155.5,-100.7 197.4,-109.5 208.8,-100.6C220.3,-91.7 201.3,-65.2 199.2,-45.5C197,-25.8 211.7,-12.9 226.4,0L0,0L0,-226.4Z" style="fill:rgb(95,55,96);fill-rule:nonzero;"/>
        <path d="M0,-181.1C14,-179.6 28.1,-178.1 39.3,-172.1C50.5,-166.2 58.9,-155.8 73.4,-152.4C87.8,-149 108.3,-152.7 112.2,-140.7C116.1,-128.8 103.5,-101.2 113.9,-90.9C124.4,-80.6 157.9,-87.6 167.1,-80.5C176.2,-73.3 161,-52.1 159.3,-36.4C157.6,-20.6 169.4,-10.3 181.1,0L0,0L0,-181.1Z" style="fill:rgb(124,64,126);fill-rule:nonzero;"/>
        <path d="M0,-135.9C10.5,-134.7 21,-133.6 29.5,-129.1C37.9,-124.6 44.2,-116.8 55,-114.3C65.9,-111.8 81.2,-114.5 84.2,-105.5C87.1,-96.6 77.6,-75.9 85.4,-68.1C93.3,-60.4 118.4,-65.7 125.3,-60.3C132.2,-55 120.8,-39.1 119.5,-27.3C118.2,-15.5 127,-7.7 135.9,0L0,0L0,-135.9Z" style="fill:rgb(155,74,157);fill-rule:nonzero;"/>
        <path d="M0,-90.6C7,-89.8 14,-89.1 19.6,-86.1C25.3,-83.1 29.5,-77.9 36.7,-76.2C43.9,-74.5 54.2,-76.3 56.1,-70.4C58.1,-64.4 51.7,-50.6 57,-45.4C62.2,-40.3 78.9,-43.8 83.5,-40.2C88.1,-36.7 80.5,-26.1 79.7,-18.2C78.8,-10.3 84.7,-5.2 90.6,0L0,0L0,-90.6Z" style="fill:rgb(186,83,189);fill-rule:nonzero;"/>
        <path d="M0,-45.3C3.5,-44.9 7,-44.5 9.8,-43C12.6,-41.5 14.7,-38.9 18.3,-38.1C22,-37.3 27.1,-38.2 28.1,-35.2C29,-32.2 25.9,-25.3 28.5,-22.7C31.1,-20.1 39.5,-21.9 41.8,-20.1C44.1,-18.3 40.3,-13 39.8,-9.1C39.4,-5.2 42.3,-2.6 45.3,0L0,0L0,-45.3Z" style="fill:rgb(202,88,206);fill-rule:nonzero;"/>
    </g>
    <g transform="matrix(18.903328,0,0,15.735925,0.00494,8480.554733)">
        <path d="M0,-317C24.6,-314.3 49.1,-311.7 68.8,-301.3C88.4,-290.8 103.1,-272.6 128.4,-266.7C153.7,-260.8 189.6,-267.2 196.4,-246.3C203.2,-225.3 181.1,-177 199.4,-159C217.6,-141 276.3,-153.2 292.4,-140.8C308.4,-128.4 281.8,-91.2 278.8,-63.6C275.8,-36.1 296.4,-18 317,0L0,0L0,-317Z" style="fill:rgb(41,34,41);fill-rule:nonzero;"/>
        <path d="M0,-271.7C21,-269.4 42.1,-267.2 58.9,-258.2C75.8,-249.3 88.4,-233.6 110.1,-228.6C131.8,-223.5 162.5,-229 168.3,-211.1C174.2,-193.1 155.2,-151.7 170.9,-136.3C186.5,-120.8 236.8,-131.3 250.6,-120.7C264.4,-110 241.6,-78.2 239,-54.5C236.4,-30.9 254.1,-15.5 271.7,0L0,0L0,-271.7Z" style="fill:rgb(67,44,67);fill-rule:nonzero;"/>
        <path d="M0,-226.4C17.5,-224.5 35.1,-222.6 49.1,-215.2C63.1,-207.7 73.7,-194.7 91.7,-190.5C109.8,-186.3 135.4,-190.9 140.3,-175.9C145.2,-161 129.4,-126.4 142.4,-113.6C155.5,-100.7 197.4,-109.5 208.8,-100.6C220.3,-91.7 201.3,-65.2 199.2,-45.5C197,-25.8 211.7,-12.9 226.4,0L0,0L0,-226.4Z" style="fill:rgb(95,55,96);fill-rule:nonzero;"/>
        <path d="M0,-181.1C14,-179.6 28.1,-178.1 39.3,-172.1C50.5,-166.2 58.9,-155.8 73.4,-152.4C87.8,-149 108.3,-152.7 112.2,-140.7C116.1,-128.8 103.5,-101.2 113.9,-90.9C124.4,-80.6 157.9,-87.6 167.1,-80.5C176.2,-73.3 161,-52.1 159.3,-36.4C157.6,-20.6 169.4,-10.3 181.1,0L0,0L0,-181.1Z" style="fill:rgb(124,64,126);fill-rule:nonzero;"/>
        <path d="M0,-135.9C10.5,-134.7 21,-133.6 29.5,-129.1C37.9,-124.6 44.2,-116.8 55,-114.3C65.9,-111.8 81.2,-114.5 84.2,-105.5C87.1,-96.6 77.6,-75.9 85.4,-68.1C93.3,-60.4 118.4,-65.7 125.3,-60.3C132.2,-55 120.8,-39.1 119.5,-27.3C118.2,-15.5 127,-7.7 135.9,0L0,0L0,-135.9Z" style="fill:rgb(155,74,157);fill-rule:nonzero;"/>
        <path d="M0,-90.6C7,-89.8 14,-89.1 19.6,-86.1C25.3,-83.1 29.5,-77.9 36.7,-76.2C43.9,-74.5 54.2,-76.3 56.1,-70.4C58.1,-64.4 51.7,-50.6 57,-45.4C62.2,-40.3 78.9,-43.8 83.5,-40.2C88.1,-36.7 80.5,-26.1 79.7,-18.2C78.8,-10.3 84.7,-5.2 90.6,0L0,0L0,-90.6Z" style="fill:rgb(186,83,189);fill-rule:nonzero;"/>
        <path d="M0,-45.3C3.5,-44.9 7,-44.5 9.8,-43C12.6,-41.5 14.7,-38.9 18.3,-38.1C22,-37.3 27.1,-38.2 28.1,-35.2C29,-32.2 25.9,-25.3 28.5,-22.7C31.1,-20.1 39.5,-21.9 41.8,-20.1C44.1,-18.3 40.3,-13 39.8,-9.1C39.4,-5.2 42.3,-2.6 45.3,0L0,0L0,-45.3Z" style="fill:rgb(202,88,206);fill-rule:nonzero;"/>
    </g>
    <g transform="matrix(18.903328,0,0,-15.735925,2.00494,8481.266649)">
        <path d="M0,-317C24.6,-314.3 49.1,-311.7 68.8,-301.3C88.4,-290.8 103.1,-272.6 128.4,-266.7C153.7,-260.8 189.6,-267.2 196.4,-246.3C203.2,-225.3 181.1,-177 199.4,-159C217.6,-141 276.3,-153.2 292.4,-140.8C308.4,-128.4 281.8,-91.2 278.8,-63.6C275.8,-36.1 296.4,-18 317,0L0,0L0,-317Z" style="fill:rgb(41,34,41);fill-rule:nonzero;"/>
        <path d="M0,-271.7C21,-269.4 42.1,-267.2 58.9,-258.2C75.8,-249.3 88.4,-233.6 110.1,-228.6C131.8,-223.5 162.5,-229 168.3,-211.1C174.2,-193.1 155.2,-151.7 170.9,-136.3C186.5,-120.8 236.8,-131.3 250.6,-120.7C264.4,-110 241.6,-78.2 239,-54.5C236.4,-30.9 254.1,-15.5 271.7,0L0,0L0,-271.7Z" style="fill:rgb(67,44,67);fill-rule:nonzero;"/>
        <path d="M0,-226.4C17.5,-224.5 35.1,-222.6 49.1,-215.2C63.1,-207.7 73.7,-194.7 91.7,-190.5C109.8,-186.3 135.4,-190.9 140.3,-175.9C145.2,-161 129.4,-126.4 142.4,-113.6C155.5,-100.7 197.4,-109.5 208.8,-100.6C220.3,-91.7 201.3,-65.2 199.2,-45.5C197,-25.8 211.7,-12.9 226.4,0L0,0L0,-226.4Z" style="fill:rgb(95,55,96);fill-rule:nonzero;"/>
        <path d="M0,-181.1C14,-179.6 28.1,-178.1 39.3,-172.1C50.5,-166.2 58.9,-155.8 73.4,-152.4C87.8,-149 108.3,-152.7 112.2,-140.7C116.1,-128.8 103.5,-101.2 113.9,-90.9C124.4,-80.6 157.9,-87.6 167.1,-80.5C176.2,-73.3 161,-52.1 159.3,-36.4C157.6,-20.6 169.4,-10.3 181.1,0L0,0L0,-181.1Z" style="fill:rgb(124,64,126);fill-rule:nonzero;"/>
        <path d="M0,-135.9C10.5,-134.7 21,-133.6 29.5,-129.1C37.9,-124.6 44.2,-116.8 55,-114.3C65.9,-111.8 81.2,-114.5 84.2,-105.5C87.1,-96.6 77.6,-75.9 85.4,-68.1C93.3,-60.4 118.4,-65.7 125.3,-60.3C132.2,-55 120.8,-39.1 119.5,-27.3C118.2,-15.5 127,-7.7 135.9,0L0,0L0,-135.9Z" style="fill:rgb(155,74,157);fill-rule:nonzero;"/>
        <path d="M0,-90.6C7,-89.8 14,-89.1 19.6,-86.1C25.3,-83.1 29.5,-77.9 36.7,-76.2C43.9,-74.5 54.2,-76.3 56.1,-70.4C58.1,-64.4 51.7,-50.6 57,-45.4C62.2,-40.3 78.9,-43.8 83.5,-40.2C88.1,-36.7 80.5,-26.1 79.7,-18.2C78.8,-10.3 84.7,-5.2 90.6,0L0,0L0,-90.6Z" style="fill:rgb(186,83,189);fill-rule:nonzero;"/>
        <path d="M0,-45.3C3.5,-44.9 7,-44.5 9.8,-43C12.6,-41.5 14.7,-38.9 18.3,-38.1C22,-37.3 27.1,-38.2 28.1,-35.2C29,-32.2 25.9,-25.3 28.5,-22.7C31.1,-20.1 39.5,-21.9 41.8,-20.1C44.1,-18.3 40.3,-13 39.8,-9.1C39.4,-5.2 42.3,-2.6 45.3,0L0,0L0,-45.3Z" style="fill:rgb(202,88,206);fill-rule:nonzero;"/>
    </g>
</svg>
